<svg width="40" height="45" viewBox="0 0 40 45" fill="none" xmlns="http://www.w3.org/2000/svg">
<path d="M35.7143 2.8125H4.28571C1.91964 2.8125 0 4.70215 0 7.03125V37.9688C0 40.2979 1.91964 42.1875 4.28571 42.1875H35.7143C38.0804 42.1875 40 40.2979 40 37.9688V7.03125C40 4.70215 38.0804 2.8125 35.7143 2.8125ZM32.8571 24.9609C32.8571 25.541 32.375 26.0156 31.7857 26.0156H23.5714V34.1016C23.5714 34.6816 23.0893 35.1562 22.5 35.1562H17.5C16.9107 35.1562 16.4286 34.6816 16.4286 34.1016V26.0156H8.21429C7.625 26.0156 7.14286 25.541 7.14286 24.9609V20.0391C7.14286 19.459 7.625 18.9844 8.21429 18.9844H16.4286V10.8984C16.4286 10.3184 16.9107 9.84375 17.5 9.84375H22.5C23.0893 9.84375 23.5714 10.3184 23.5714 10.8984V18.9844H31.7857C32.375 18.9844 32.8571 19.459 32.8571 20.0391V24.9609Z" fill="black"/>
</svg>
