<svg width="40" height="41" viewBox="0 0 40 41" fill="none" xmlns="http://www.w3.org/2000/svg">
<path d="M35.7143 0.8125H4.28571C1.91964 0.8125 0 2.70215 0 5.03125V35.9688C0 38.2979 1.91964 40.1875 4.28571 40.1875H35.7143C38.0804 40.1875 40 38.2979 40 35.9688V5.03125C40 2.70215 38.0804 0.8125 35.7143 0.8125ZM32.8571 22.9609C32.8571 23.541 32.375 24.0156 31.7857 24.0156H23.5714V32.1016C23.5714 32.6816 23.0893 33.1562 22.5 33.1562H17.5C16.9107 33.1562 16.4286 32.6816 16.4286 32.1016V24.0156H8.21429C7.625 24.0156 7.14286 23.541 7.14286 22.9609V18.0391C7.14286 17.459 7.625 16.9844 8.21429 16.9844H16.4286V8.89844C16.4286 8.31836 16.9107 7.84375 17.5 7.84375H22.5C23.0893 7.84375 23.5714 8.31836 23.5714 8.89844V16.9844H31.7857C32.375 16.9844 32.8571 17.459 32.8571 18.0391V22.9609Z" fill="#0C58D3"/>
</svg>
