<svg width="35" height="35" viewBox="0 0 35 35" fill="none" xmlns="http://www.w3.org/2000/svg">
<path d="M33.3184 21.5811L30.4063 19.8994C30.7002 18.3135 30.7002 16.6865 30.4063 15.1006L33.3184 13.4189C33.6534 13.2275 33.8038 12.8311 33.6944 12.4619C32.9356 10.0283 31.6436 7.82715 29.9551 5.99512C29.6954 5.71485 29.2715 5.64649 28.9434 5.83789L26.0313 7.51953C24.8077 6.4668 23.3995 5.65332 21.875 5.12012V1.76367C21.875 1.38086 21.6084 1.0459 21.2325 0.96387C18.7237 0.403323 16.1534 0.430667 13.7676 0.96387C13.3917 1.0459 13.1251 1.38086 13.1251 1.76367V5.12696C11.6075 5.667 10.1993 6.48047 8.9688 7.52637L6.06353 5.84473C5.72857 5.65332 5.31157 5.71485 5.05181 6.00196C3.36333 7.82715 2.07134 10.0283 1.31255 12.4688C1.19634 12.8379 1.35357 13.2344 1.68853 13.4258L4.60064 15.1074C4.30669 16.6934 4.30669 18.3203 4.60064 19.9063L1.68853 21.5879C1.35357 21.7793 1.20318 22.1758 1.31255 22.5449C2.07134 24.9785 3.36333 27.1797 5.05181 29.0117C5.31157 29.292 5.7354 29.3604 6.06353 29.1689L8.97564 27.4873C10.1993 28.54 11.6075 29.3535 13.1319 29.8867V33.25C13.1319 33.6328 13.3985 33.9678 13.7745 34.0498C16.2833 34.6104 18.8536 34.583 21.2393 34.0498C21.6153 33.9678 21.8819 33.6328 21.8819 33.25V29.8867C23.3995 29.3467 24.8077 28.5332 26.0381 27.4873L28.9502 29.1689C29.2852 29.3604 29.7022 29.2988 29.962 29.0117C31.6504 27.1865 32.9424 24.9854 33.7012 22.5449C33.8038 22.1689 33.6534 21.7725 33.3184 21.5811ZM17.5001 22.9688C14.4854 22.9688 12.0313 20.5147 12.0313 17.5C12.0313 14.4854 14.4854 12.0313 17.5001 12.0313C20.5147 12.0313 22.9688 14.4854 22.9688 17.5C22.9688 20.5147 20.5147 22.9688 17.5001 22.9688Z" fill="#0C58D3"/>
</svg>
