<svg width="15" height="15" viewBox="0 0 15 15" fill="none" xmlns="http://www.w3.org/2000/svg">
<circle cx="7.5" cy="7.5" r="7.5" fill="#1C1C1C"/>
<path d="M3.21415 11.375L4.0602 11.375C4.0892 11.375 4.1179 11.3702 4.14457 11.3609C4.17124 11.3515 4.19531 11.3379 4.21534 11.3207C4.23536 11.3035 4.25092 11.2831 4.26106 11.2608C4.2712 11.2385 4.27572 11.2148 4.27434 11.1911L4.20296 9.98004C4.61799 10.3811 5.13458 10.7031 5.71681 10.9238C6.29903 11.1445 7.35858 11.5006 8 11.5C10.4388 11.5 12.0018 9.62593 12 7.62619C11.9982 5.62323 10.0174 4 7.57433 4C6.47843 3.99873 5.42122 4.33212 4.60877 4.93519C4.58707 4.95112 4.56955 4.97051 4.5573 4.99218C4.54505 5.01384 4.53832 5.03733 4.53751 5.06121C4.53671 5.08508 4.54186 5.10884 4.55264 5.13102C4.56342 5.15321 4.5796 5.17336 4.6002 5.19025L5.20695 5.68776C5.24535 5.71924 5.2969 5.73759 5.35117 5.73908C5.40544 5.74057 5.45837 5.72511 5.49926 5.69581C5.97868 5.34994 6.57529 5.13212 7.20954 5.07137C7.8438 5.01063 8.48556 5.10985 9.04929 5.35582C9.61301 5.60179 10.0719 5.98281 10.3648 6.44809C10.6577 6.91337 10.6887 7.38998 10.6887 7.96008C10.6067 8.47935 10.4278 9.11123 10 9.5C9.57224 9.88877 9 10.5 8 10.5C8 10.5 7.02151 10.2181 6.42704 10.0269C5.83257 9.83574 5.32329 9.50051 4.96711 9.06592L6.77895 9.13718C6.80792 9.13831 6.83687 9.13461 6.86403 9.12629C6.8912 9.11797 6.91602 9.10522 6.937 9.0888C6.95797 9.07238 6.97466 9.05264 6.98606 9.03077C6.99745 9.0089 7.00331 8.98537 7.00327 8.96159L7.00327 8.26784C7.00327 8.22127 6.98071 8.17661 6.94055 8.14368C6.90039 8.11075 6.84592 8.09225 6.78913 8.09225L3.21415 8.09225C3.15735 8.09225 3.10288 8.11075 3.06272 8.14368C3.02256 8.17661 3 8.22127 3 8.26784L3 11.1994C3 11.246 3.02256 11.2906 3.06272 11.3236C3.10288 11.3565 3.15735 11.375 3.21415 11.375Z" fill="white"/>
</svg>
