<svg width="15" height="15" viewBox="0 0 15 15" fill="none" xmlns="http://www.w3.org/2000/svg">
<path d="M7.32896 0.234375C11.2511 0.234375 14.4289 3.48633 14.4289 7.5C14.4289 11.5137 11.2511 14.7656 7.32896 14.7656C3.40681 14.7656 0.229004 11.5137 0.229004 7.5C0.229004 3.48633 3.40681 0.234375 7.32896 0.234375ZM6.50159 4.44141L8.66307 6.5625H3.43544C3.05467 6.5625 2.74834 6.87598 2.74834 7.26562V7.73438C2.74834 8.12402 3.05467 8.4375 3.43544 8.4375H8.66307L6.50159 10.5586C6.22389 10.8311 6.21816 11.2852 6.49014 11.5635L6.80506 11.8828C7.07417 12.1582 7.50933 12.1582 7.77557 11.8828L11.5746 7.99805C11.8437 7.72266 11.8437 7.27734 11.5746 7.00488L7.77557 3.11426C7.50646 2.83887 7.0713 2.83887 6.80506 3.11426L6.49014 3.43359C6.21816 3.71484 6.22389 4.16895 6.50159 4.44141Z" fill="#0C58D3" fill-opacity="0.8"/>
</svg>
