<svg width="33" height="35" viewBox="0 0 33 35" fill="none" xmlns="http://www.w3.org/2000/svg">
<path d="M32.3184 21.5811L29.4063 19.8994C29.7002 18.3135 29.7002 16.6865 29.4063 15.1006L32.3184 13.4189C32.6534 13.2275 32.8038 12.8311 32.6944 12.4619C31.9356 10.0283 30.6436 7.82715 28.9551 5.99512C28.6954 5.71485 28.2715 5.64649 27.9434 5.83789L25.0313 7.51953C23.8077 6.4668 22.3995 5.65332 20.875 5.12012V1.76367C20.875 1.38086 20.6084 1.0459 20.2325 0.96387C17.7237 0.403323 15.1534 0.430667 12.7676 0.96387C12.3917 1.0459 12.1251 1.38086 12.1251 1.76367V5.12696C10.6075 5.667 9.19927 6.48047 7.9688 7.52637L5.06353 5.84473C4.72857 5.65332 4.31157 5.71485 4.05181 6.00196C2.36333 7.82715 1.07134 10.0283 0.312552 12.4688C0.196341 12.8379 0.353568 13.2344 0.688529 13.4258L3.60064 15.1074C3.30669 16.6934 3.30669 18.3203 3.60064 19.9063L0.688529 21.5879C0.353568 21.7793 0.203177 22.1758 0.312552 22.5449C1.07134 24.9785 2.36333 27.1797 4.05181 29.0117C4.31157 29.292 4.7354 29.3604 5.06353 29.1689L7.97564 27.4873C9.19927 28.54 10.6075 29.3535 12.1319 29.8867V33.25C12.1319 33.6328 12.3985 33.9678 12.7745 34.0498C15.2833 34.6104 17.8536 34.583 20.2393 34.0498C20.6153 33.9678 20.8819 33.6328 20.8819 33.25V29.8867C22.3995 29.3467 23.8077 28.5332 25.0381 27.4873L27.9502 29.1689C28.2852 29.3604 28.7022 29.2988 28.962 29.0117C30.6504 27.1865 31.9424 24.9854 32.7012 22.5449C32.8038 22.1689 32.6534 21.7725 32.3184 21.5811ZM16.5001 22.9688C13.4854 22.9688 11.0313 20.5147 11.0313 17.5C11.0313 14.4854 13.4854 12.0313 16.5001 12.0313C19.5147 12.0313 21.9688 14.4854 21.9688 17.5C21.9688 20.5147 19.5147 22.9688 16.5001 22.9688Z" fill="#FBFCFC"/>
</svg>
